/* XPM */
static char *giortes__[] = {
/* columns rows colors chars-per-pixel */
"32 32 217 2",
"   c #010101",
".  c #06060B",
"X  c #09070B",
"o  c #0B0A0D",
"O  c #0C0B13",
"+  c #120E18",
"@  c #10101D",
"#  c #1A181F",
"$  c #141323",
"%  c #181626",
"&  c #1B1820",
"*  c #161629",
"=  c #19172A",
"-  c #1A182C",
";  c #1C1C34",
":  c #211F27",
">  c #211D29",
",  c #201F37",
"<  c #201F39",
"1  c #262334",
"2  c #2D2A37",
"3  c #25233A",
"4  c #282439",
"5  c #2E2C3C",
"6  c #33313F",
"7  c #252443",
"8  c #2C2743",
"9  c #2E2845",
"0  c #2C2A4D",
"q  c #332C45",
"w  c #332E4C",
"e  c #393446",
"r  c #3A3845",
"t  c #36324A",
"y  c #3B334A",
"u  c #2E2D53",
"i  c #332F50",
"p  c #3E3652",
"a  c #3F3A52",
"s  c #34325C",
"d  c #3C365A",
"f  c #363562",
"g  c #393766",
"h  c #3B3966",
"j  c #3D3A6B",
"k  c #3F3D70",
"l  c #423755",
"z  c #443D53",
"x  c #443858",
"c  c #483B5E",
"v  c #433E6E",
"b  c #4B3E68",
"n  c #413F74",
"m  c #494655",
"M  c #4A4259",
"N  c #4C4958",
"B  c #565656",
"V  c #5A5A5A",
"C  c #4E4363",
"Z  c #4F4A63",
"A  c #514666",
"S  c #524C62",
"D  c #52436C",
"F  c #544A69",
"G  c #595766",
"H  c #5A546D",
"J  c #5E5B6C",
"K  c #444174",
"L  c #4B4676",
"P  c #44437B",
"I  c #49437A",
"U  c #5A4D72",
"Y  c #514A7D",
"T  c #5A4A7A",
"R  c #5D5176",
"E  c #5F5970",
"W  c #5F5378",
"Q  c #604F7C",
"!  c #645F74",
"~  c #62537E",
"^  c #665D7F",
"/  c #6C6C6C",
"(  c #666375",
")  c #686577",
"_  c #6C697B",
"`  c #706F7E",
"'  c #494681",
"]  c #4B4887",
"[  c #4E4C8C",
"{  c #534E8F",
"}  c #5D558D",
"|  c #585394",
" . c #59559C",
".. c #665583",
"X. c #6B5D86",
"o. c #675389",
"O. c #6B598B",
"+. c #725E94",
"@. c #6C6381",
"#. c #6E618B",
"$. c #726F83",
"%. c #746F8C",
"&. c #767487",
"*. c #7C7C80",
"=. c #777489",
"-. c #7A768C",
";. c #776B95",
":. c #786997",
">. c #76639B",
",. c #7A659F",
"<. c #79699A",
"1. c #7E7598",
"2. c #5F5BA8",
"3. c #625EAC",
"4. c #6961AC",
"5. c #7C65A4",
"6. c #7F6AA6",
"7. c #6964B7",
"8. c #6B66B9",
"9. c #6F68BC",
"0. c #756CBD",
"q. c #807A97",
"w. c #82779E",
"e. c #836EAA",
"r. c #8270A3",
"t. c #8578A2",
"y. c #8B7CAC",
"u. c #8B75B3",
"i. c #8D7AB3",
"p. c #917ABA",
"a. c #9276C0",
"s. c #967AC4",
"d. c #9A7ECA",
"f. c #8C8C95",
"g. c #8F8BA5",
"h. c #9797A7",
"j. c #9691AE",
"k. c #9F9EAD",
"l. c #9283B5",
"z. c #958AB2",
"x. c #998FB5",
"c. c #9683BC",
"v. c #9C8CBE",
"b. c #9892B0",
"n. c #9E9BB4",
"m. c #9F9AB8",
"M. c #A59EBF",
"N. c #A2A1B3",
"B. c #A5A1BC",
"V. c #9781C0",
"C. c #9D8EC0",
"Z. c #9B81CA",
"A. c #9E88C9",
"S. c #9E82D0",
"D. c #A297C1",
"F. c #A49AC2",
"G. c #AA9FC8",
"H. c #A284D4",
"J. c #A68DD3",
"K. c #A686DA",
"L. c #AA8DDC",
"P. c #AC9BD3",
"I. c #AE96DD",
"U. c #AE99D9",
"Y. c #B19DDB",
"T. c #A7A0C1",
"R. c #A9A4C3",
"E. c #ACAAC1",
"W. c #B1ACCC",
"Q. c #B4B3CB",
"!. c #B8B7CE",
"~. c #AFA5D0",
"^. c #B4ABD2",
"/. c #B7B2D1",
"(. c #B9B3D4",
"). c #BFBED5",
"_. c #BAB2D9",
"`. c #B39BE3",
"'. c #B390EB",
"]. c #B698EA",
"[. c #B99CEC",
"{. c #B895F2",
"}. c #BB9AF4",
"|. c #B6A3E1",
" X c #BAA5E6",
".X c #BEAFE4",
"XX c #BDA8E9",
"oX c #BEB4E0",
"OX c #BFA1F5",
"+X c #C3AEEF",
"@X c #C2B7E3",
"#X c #C2B9E2",
"$X c #C9BFEA",
"%X c #C1A4F7",
"&X c #C4ABF7",
"*X c #C6ADF8",
"=X c #C9B6F4",
"-X c #CBBAF3",
";X c #CAB4F9",
":X c #CEBBFA",
">X c #D0BFFA",
",X c #C6C4DF",
"<X c #C6C2E3",
"1X c #CDC6EA",
"2X c #D1CBEF",
"3X c #CFC3F4",
"4X c #D2C7F6",
"5X c #D3CBF5",
"6X c #D2C3FB",
"7X c #D6CBFC",
"8X c #D9CEFC",
"9X c #D9D7F4",
"0X c #DAD3FD",
"qX c #DEDAFD",
"wX c #E0DDFE",
"eX c #E3E1FF",
"rX c None",
/* pixels */
"rXrXrXrXrXrXrXrXrXrXrXrX/ rXrXrXrXrX/ rXrXrXrXrXrXrXrXrXrXrXrXrX",
"rXrXrXrXrXrXrXrXrXrXrXB rXV rXrXrXV rXV rXrXrXrXrXrXrXrXrXrXrXrX",
"rXrXrXrXrXrX%.Q.!.!.!.E.!.f.h.!.Q.Q.!.*.E.!.!.B.rXrXrXrXrXrXrXrX",
"rXrXrXrXrXn k.eXeXeXeXeX,Xf.9XqXwXeXN.k.wXwXqXwXn.rXrXrXrXrXrXrX",
"rXrXrXrX7 j $.qXeX,XB.wXwXqXwXwXqXqXqXB.qXqXwXqX(.rXrXrXrXrXrXrX",
"rXrXrX* 3 k G qXqX_ Q.n.(.=.<X-.n.&.n.) /.&.1X0X(.rXrXrXrXrXrXrX",
"rXrXrX@ , P m 0XqX$.5X) ( W._ g.J ( ^.J n.z.0X0X(.rXrXrXrXrXrXrX",
"rXrXrXO - P r 0X0XR.5Xb.B.=.R.N B.M.T.-.W.! ^.0X_.rXrXrXrXrXrXrX",
"rXrXrXrX$ P q 0X0X8X8X8X8X<X@X#X8X5X@X8X7X$X4X7XoXrXrXrXrXrXrXrX",
"rXrXrXrX$ P 2 5X8X8X8X8X~..   q.4X:   H 7X7X7X7X4X9 rXrXrXrXrXrX",
"rXrXrXrX$ n 1 6X7X7X7X7XF.G.E   @X~.x.  =X7X6X6X4XZ rXrXrXrXrXrX",
"rXrXrXrX$ n 3 ^.6X7X6X6X7X6XD.O 6X6XS . z.6X6X4X6X^ rXrXrXrXrXrX",
"rXrXrXrX$ j t 1.6X6X6X6X6X6X-.@.=X6X.XS O =X:X:X:X;.rXrXrXrXrXrX",
"rXrXrXrX$ g d H :X:X:X:X:X:X# M 2 v.w.=X& :X:X:X:Xy.rXrXrXrXrXrX",
"rXrXrXrX$ s h a -X:X:X:X:XP.t e t C.z M t.;X;X;X:XP.rXrXrXrXrXrX",
"rXrXrXrX* s h t =X:X;X:X;X:X;X;X;X&X^.;X;X;X;X;X;X;XrXrXrXrXrXrX",
"rXrXrXrX* u j d l.;X;XXXXX XY.;X;Xc.y.;X*X;X*X*X;X*Xc.rXrXrXrXrX",
"rXrXrXrX* 0 K } p *X;Xc.: #.: U.F F :.`.e U X.:.Q *X`.rXrXrXrXrX",
"rXrXrXrX* 7 I } 4 |.&X*XC A Q R A y r.A <.U #.U l Y.*Xp.rXrXrXrX",
"rXrXrXrX$ 7 { L Y ..&X&XI.c.%Xu.%XA.`.J.`.%X%X%X%X%X%X%XrXrXrXrX",
"rXrXrXrX@ < [ K 0.4 OX%X%X%X%X%XJ.%Xp.[.p.%X%X%X}.L.].OX[.rXrXrX",
"rXrXrXrXO ; ] v 0.w <.OX%X%Xp.U u.~ U ..x e.x O.C +.D }.}.L.rXrX",
"rXrXrXrX. * ' j 0.4.= Z.}.OXOXT r.~ ,.c +.D d.,.d.L.H.{.}.}.rXrX",
"rXrXrXrXrX* P j 9.9.| = s.}.}.}.{.{.{.H.{.H.{.{.{.'.K.s.5.T rXrX",
"rXrXrXrXrX$ P g 7.8.8.{ * D a.5.o.T b d w q 9 8 8 9 + X rXrXrXrX",
"rXrXrXrXrX- K s 2.7.7.7.3.g s k ' {  .2.7.7.8.7.8.I rXrXrXrXrXrX",
"rXrXrXrXrX; s n u s s f f f f f g g j j j j j j u @ rXrXrXrXrXrX",
"rXrXrXrXrXrX* * @ $ $ $ $ * * - - - - ; ; ; < @ rXrXrXrXrXrXrXrX",
"rXrXrXrXrXrXrXrX                              rXrXrXrXrXrXrXrXrX",
"rXrXrXrXrXrXrXrXrXrXrXrXrXrXrXrXrXrXrXrXrXrXrXrXrXrXrXrXrXrXrXrX",
"rXrXrXrXrXrXrXrXrXrXrXrXrXrXrXrXrXrXrXrXrXrXrXrXrXrXrXrXrXrXrXrX",
"rXrXrXrXrXrXrXrXrXrXrXrXrXrXrXrXrXrXrXrXrXrXrXrXrXrXrXrXrXrXrXrX"
};
